<?xml version="1.0" encoding="utf-8"?>
<!-- Generator: Adobe Illustrator 16.0.4, SVG Export Plug-In . SVG Version: 6.00 Build 0)  -->
<!DOCTYPE svg PUBLIC "-//W3C//DTD SVG 1.1//EN" "http://www.w3.org/Graphics/SVG/1.1/DTD/svg11.dtd">
<svg version="1.1" id="Layer_1" xmlns="http://www.w3.org/2000/svg" xmlns:xlink="http://www.w3.org/1999/xlink" x="0px" y="0px"
	 width="60.3px" height="44px" viewBox="0 0 60.3 44" style="enable-background:new 0 0 60.3 44;" xml:space="preserve">
<g>
	<rect style="fill:none;" width="60.3" height="44"/>
	<g>
		<path style="fill:#FFFFFF;" d="M1.97,24.42c0.15,1.03,1.13,1.69,2.54,1.69c1.33,0,2.3-0.72,2.3-1.7c0-0.84-0.62-1.37-1.98-1.71
			l-1.26-0.33c-1.78-0.45-2.56-1.26-2.56-2.66c0-1.67,1.4-2.81,3.49-2.81c1.91,0,3.33,1.13,3.43,2.73H6.7
			c-0.17-1.01-1-1.61-2.24-1.61c-1.31,0-2.18,0.66-2.18,1.65c0,0.77,0.54,1.22,1.9,1.57l1.03,0.27c2.04,0.51,2.86,1.31,2.86,2.75
			c0,1.81-1.43,2.97-3.68,2.97c-2.09,0-3.53-1.11-3.66-2.81H1.97z"/>
		<path style="fill:#FFFFFF;" d="M15.79,27h-1.12v-1.15h-0.11c-0.37,0.82-1.16,1.29-2.28,1.29c-1.65,0-2.52-0.98-2.52-2.73v-4.77
			h1.18v4.48c0,1.33,0.49,1.94,1.67,1.94c1.3,0,2.01-0.77,2.01-2.06v-4.36h1.18V27z"/>
		<path style="fill:#FFFFFF;" d="M24.55,23.31c0,2.3-1.22,3.81-3.1,3.81c-1.05,0-1.9-0.46-2.3-1.24h-0.11v3.57h-1.18v-9.83h1.12
			v1.23h0.11c0.47-0.85,1.35-1.36,2.36-1.36C23.34,19.5,24.55,21,24.55,23.31z M23.34,23.31c0-1.72-0.81-2.76-2.15-2.76
			c-1.33,0-2.17,1.06-2.17,2.76c0,1.69,0.84,2.75,2.17,2.75C22.53,26.07,23.34,25.04,23.34,23.31z"/>
		<path style="fill:#FFFFFF;" d="M32.94,23.31c0,2.3-1.22,3.81-3.1,3.81c-1.05,0-1.9-0.46-2.3-1.24h-0.11v3.57h-1.18v-9.83h1.12
			v1.23h0.11c0.47-0.85,1.35-1.36,2.36-1.36C31.73,19.5,32.94,21,32.94,23.31z M31.73,23.31c0-1.72-0.81-2.76-2.15-2.76
			c-1.33,0-2.17,1.06-2.17,2.76c0,1.69,0.84,2.75,2.17,2.75C30.92,26.07,31.73,25.04,31.73,23.31z"/>
		<path style="fill:#FFFFFF;" d="M34.28,23.31c0-2.37,1.3-3.81,3.4-3.81s3.4,1.44,3.4,3.81c0,2.37-1.3,3.81-3.4,3.81
			S34.28,25.68,34.28,23.31z M39.86,23.31c0-1.75-0.79-2.76-2.18-2.76s-2.18,1-2.18,2.76c0,1.74,0.79,2.75,2.18,2.75
			S39.86,25.06,39.86,23.31z"/>
		<path style="fill:#FFFFFF;" d="M42.78,19.63h1.12v1.09h0.11c0.22-0.72,1.07-1.22,2.04-1.22c0.19,0,0.44,0.01,0.59,0.03v1.18
			c-0.1-0.03-0.52-0.07-0.75-0.07c-1.12,0-1.93,0.75-1.93,1.79V27h-1.18V19.63z"/>
		<path style="fill:#FFFFFF;" d="M50.05,17.72v1.91h1.64v0.98h-1.64v4.17c0,0.87,0.33,1.24,1.09,1.24c0.21,0,0.33-0.01,0.55-0.03
			v0.99c-0.23,0.04-0.46,0.07-0.69,0.07c-1.52,0-2.13-0.56-2.13-1.97v-4.47h-1.19v-0.98h1.19v-1.91H50.05z"/>
		<path style="fill:#FFFFFF;" d="M52.86,23.31c0-2.37,1.3-3.81,3.4-3.81s3.4,1.44,3.4,3.81c0,2.37-1.3,3.81-3.4,3.81
			S52.86,25.68,52.86,23.31z M58.44,23.31c0-1.75-0.79-2.76-2.18-2.76s-2.18,1-2.18,2.76c0,1.74,0.79,2.75,2.18,2.75
			S58.44,25.06,58.44,23.31z"/>
	</g>
</g>
</svg>
